<?xml version="1.0" standalone="no"?>
<!DOCTYPE svg PUBLIC "-//W3C//DTD SVG 20010904//EN"
 "http://www.w3.org/TR/2001/REC-SVG-20010904/DTD/svg10.dtd">
<svg version="1.0" xmlns="http://www.w3.org/2000/svg"
 width="672.000000pt" height="672.000000pt" viewBox="0 0 672.000000 672.000000"
 preserveAspectRatio="xMidYMid meet">
<metadata>
Created by potrace 1.11, written by Peter Selinger 2001-2013
</metadata>
<g transform="translate(0.000000,672.000000) scale(0.100000,-0.100000)"
fill="#000000" stroke="none">
<path d="M2938 6646 c-27 -7 -48 -11 -48 -10 0 3 -15 -5 -91 -48 -13 -7 -31
-21 -40 -30 -9 -10 -20 -18 -25 -19 -12 0 -78 -88 -102 -135 -17 -34 -24 -55
-39 -114 -2 -8 -4 -49 -5 -90 0 -79 28 -188 59 -222 9 -10 13 -18 9 -18 -8 0
37 -52 84 -97 35 -34 133 -86 187 -99 15 -4 334 -8 707 -10 757 -2 830 -5 919
-39 20 -8 37 -13 37 -10 0 6 129 -49 175 -75 52 -29 99 -62 103 -72 2 -4 9 -8
16 -8 17 0 158 -145 205 -211 163 -229 217 -524 146 -800 -40 -152 -131 -313
-246 -430 -147 -150 -358 -257 -559 -285 -30 -4 -494 -8 -1030 -9 -968 -2
-975 -2 -1033 -23 -108 -39 -211 -123 -254 -206 -9 -17 -19 -33 -23 -36 -4 -3
-15 -38 -25 -78 -24 -99 -15 -213 24 -291 46 -94 93 -149 174 -202 117 -76 56
-72 1152 -74 941 -2 1032 -4 1101 -26 17 -5 42 -12 55 -14 73 -14 303 -135
317 -167 2 -5 8 -8 13 -8 14 0 121 -109 171 -175 69 -91 145 -243 162 -325 3
-14 7 -36 11 -50 39 -175 20 -394 -47 -554 -16 -39 -32 -79 -35 -88 -3 -10
-10 -18 -15 -18 -5 0 -7 -4 -4 -9 3 -5 -1 -14 -9 -21 -8 -7 -15 -19 -15 -26 0
-8 -4 -14 -10 -14 -5 0 -10 -4 -10 -10 0 -5 -8 -19 -17 -31 -10 -11 -26 -30
-36 -42 -83 -101 -218 -207 -338 -265 -38 -18 -164 -66 -164 -62 0 1 -7 -1
-15 -4 -32 -10 -133 -23 -200 -25 -39 -1 -359 -3 -713 -4 -353 -2 -658 -6
-677 -10 -111 -22 -253 -135 -306 -242 -113 -232 -19 -505 211 -610 86 -40
143 -49 290 -44 11 0 301 0 645 0 344 0 643 2 665 4 80 9 130 15 151 19 12 2
39 7 60 10 102 17 304 81 399 128 33 16 60 28 60 26 1 -9 204 114 281 171 131
97 261 218 334 312 19 24 37 46 41 49 4 3 36 49 73 103 83 122 174 309 222
451 35 106 39 121 49 181 3 17 8 37 10 45 17 58 30 194 35 350 4 116 -15 313
-45 465 -35 179 -135 433 -230 581 -19 30 -35 58 -35 63 0 5 -3 11 -7 13 -5 2
-35 39 -68 83 -32 44 -105 126 -161 183 l-103 102 103 103 c139 138 283 337
353 487 60 129 101 233 118 300 2 8 11 41 19 72 9 32 18 72 21 90 3 18 8 40
11 49 7 23 26 209 24 239 0 8 0 26 1 40 1 41 -8 209 -14 250 -3 14 -8 48 -12
75 -11 78 -33 169 -62 258 -15 45 -27 84 -28 87 -11 39 -99 224 -107 228 -5 2
-8 12 -8 22 0 10 -3 20 -8 22 -4 2 -23 29 -42 61 -19 31 -38 57 -42 57 -4 0
-8 6 -8 13 0 19 -127 175 -207 255 -192 190 -354 297 -635 421 -72 31 -245 81
-333 96 -78 13 -100 17 -119 23 -11 3 -365 7 -786 8 -606 3 -775 1 -812 -10z"/>
<path d="M2210 5264 c-82 -10 -126 -17 -225 -39 -11 -2 -36 -9 -55 -15 -19 -6
-45 -13 -57 -16 -40 -8 -197 -71 -278 -111 -97 -48 -261 -148 -285 -173 -3 -3
-30 -25 -60 -49 -95 -74 -234 -215 -303 -306 -81 -107 -187 -279 -187 -302 0
-7 -4 -13 -10 -13 -5 0 -10 -7 -10 -15 0 -8 -4 -23 -10 -33 -5 -9 -19 -39 -30
-67 -12 -27 -25 -59 -30 -70 -10 -21 -49 -155 -55 -187 -2 -11 -6 -27 -9 -36
-3 -9 -8 -30 -11 -47 -2 -16 -7 -41 -10 -55 -3 -14 -8 -52 -11 -85 -3 -33 -7
-76 -10 -95 -11 -100 2 -375 22 -443 3 -10 7 -30 9 -45 7 -55 47 -199 82 -292
32 -88 138 -303 163 -332 6 -7 25 -35 42 -63 18 -27 35 -52 38 -55 3 -3 18
-22 33 -42 55 -74 186 -211 260 -272 22 -17 49 -39 60 -49 37 -32 213 -147
225 -147 6 0 12 -4 14 -8 3 -8 87 -50 180 -91 67 -30 241 -86 313 -102 33 -7
62 -13 65 -14 3 -1 32 -5 65 -9 33 -5 69 -11 80 -14 11 -3 526 -7 1145 -8
1208 -3 1171 -4 1270 46 69 35 135 106 175 186 34 68 38 87 41 163 3 69 -1 99
-19 152 -41 120 -123 215 -236 273 -89 46 -66 46 -1156 46 -566 0 -1052 2
-1080 5 -89 7 -212 32 -230 47 -5 4 -16 8 -26 8 -22 0 -193 85 -209 105 -7 8
-18 15 -26 15 -16 0 -224 203 -224 218 0 6 -7 17 -14 25 -36 36 -124 226 -142
304 -34 155 -37 327 -8 453 30 130 102 284 179 380 41 51 166 171 208 197 23
15 44 30 47 33 15 16 135 72 205 95 84 28 96 32 160 42 22 4 521 8 1109 9
1042 3 1070 3 1136 23 36 11 83 32 104 46 20 14 39 25 42 25 14 0 104 106 129
151 71 131 70 306 -3 436 -29 52 -112 143 -130 143 -7 0 -12 4 -12 9 0 9 -96
54 -145 67 -49 13 -2184 11 -2295 -2z"/>
</g>
</svg>
