<svg width="36" height="42" viewBox="0 0 36 42" fill="none" xmlns="http://www.w3.org/2000/svg">
<path d="M27.3104 29.6471C27.3104 28.1647 26.069 26.8059 24.4552 26.8059H12.1655C8.81382 26.8059 6.08279 24.0882 6.08279 20.7529C6.08279 17.4176 8.81382 14.7 12.1655 14.7H24.4552C25.9449 14.7 27.3104 13.4647 27.3104 11.8588C27.3104 10.2529 26.069 9.01764 24.4552 9.01764H12.1655C5.71038 9.01764 0.496582 14.2059 0.496582 20.6294C0.496582 27.0529 5.71038 32.2412 12.1655 32.2412H24.4552C26.069 32.3647 27.3104 31.1294 27.3104 29.6471Z" fill="#D93920"/>
<path d="M31.4069 20.7529C33.8897 18.6529 35.5035 15.4412 35.5035 11.9823C35.5035 5.55881 30.2897 0.370575 23.8345 0.370575H16.0138C14.5242 0.370575 13.1587 1.60587 13.1587 3.21175C13.1587 4.81763 14.4 6.05293 16.0138 6.05293H23.8345C27.1863 6.05293 29.9173 8.77057 29.9173 12.1059C29.9173 15.4412 27.1863 18.1588 23.8345 18.1588H12.6621C11.1725 18.1588 9.80695 19.3941 9.80695 21C9.80695 22.4823 11.0483 23.8412 12.6621 23.8412H23.8345C27.1863 23.8412 29.9173 26.5588 29.9173 29.8941C29.9173 33.2294 27.1863 35.947 23.8345 35.947H16.0138C14.5242 35.947 13.1587 37.1823 13.1587 38.7882C13.1587 40.3941 14.4 41.6294 16.0138 41.6294H23.8345C30.2897 41.6294 35.5035 36.4412 35.5035 30.0176C35.5035 25.9412 33.8897 22.8529 31.4069 20.7529Z" fill="#D93920"/>
</svg>
